<?xml version="1.0" encoding="UTF-8" standalone="no"?>

<svg
   width="81mm"
   height="60mm"
   viewBox="0 0 81 60"
   version="1.1"
   id="svg5"
   xmlns="http://www.w3.org/2000/svg"
   xmlns:svg="http://www.w3.org/2000/svg">
  <g
     id="layer1">
    <path
       style="fill:none;stroke:#000000;stroke-width:2.64583;stroke-linecap:round;stroke-linejoin:miter;stroke-miterlimit:4;stroke-dasharray:none;stroke-opacity:1"
       d="m 43.39667,57.408836 c 3.814566,-2.338243 7.175369,-2.525445 11.426533,-1.164115 0.85011,0.272223 2.8923,1.193865 3.51027,2.015965" />
    <path
       style="fill:none;stroke:#000000;stroke-width:2.64583;stroke-linecap:round;stroke-linejoin:miter;stroke-miterlimit:4;stroke-dasharray:none;stroke-opacity:1"
       d="m 48.329854,51.904328 c 1.000565,1.663499 0.41707,0.54643 1.38523,3.517923" />
    <path
       style="fill:none;stroke:#000000;stroke-width:2.64583;stroke-linecap:round;stroke-linejoin:miter;stroke-miterlimit:4;stroke-dasharray:none;stroke-opacity:1"
       d="m 49.715085,55.422249 c 3.157888,-1.401867 0.538618,-0.352839 8.412308,-0.939364" />
    <path
       style="fill:#333335;fill-opacity:1;fill-rule:evenodd;stroke:#000000;stroke-width:0.529167;stroke-miterlimit:4;stroke-dasharray:none;stroke-opacity:1"
       d="M 56.856653,0.96944363 C 50.062569,0.96940923 44.554907,6.0152673 44.555079,12.239555 c 7.94e-4,1.431764 -0.113332,2.953607 0.467156,4.282943 C 30.893795,18.802576 25.009321,34.461668 24.628131,37.68813 24.24694,40.914591 1.6973828,17.877135 0.94533913,20.256636 c -0.75204377,2.379501 -0.1113843,2.134717 3.19524847,7.549902 3.3066328,5.415187 21.0906054,20.413768 21.0906054,20.413768 2.353397,3.744166 8.112315,4.115207 17.665589,3.642669 13.015216,-0.643776 21.760513,-6.277427 24.831137,-13.209172 3.183514,-7.186588 2.364862,-12.460644 0.254154,-17.358471 0,0 1.173601,-6.284915 1.176155,-9.055777 C 69.1584,6.0152673 63.650738,0.96940923 56.856653,0.96944363 Z" />
    <ellipse
       style="fill:#000000;fill-opacity:1;stroke:#ffffff;stroke-width:0.79375;stroke-miterlimit:4;stroke-dasharray:none;stroke-opacity:1"
       cx="61.25045"
       cy="8.855113"
       rx="3.5080669"
       ry="3.6628349" />
    <path
       style="fill:#545455;fill-opacity:1;stroke:#000000;stroke-width:0.556238;stroke-linejoin:round;stroke-miterlimit:4;stroke-dasharray:none;stroke-opacity:1"
       d="m 67.724403,11.075863 c 0.99306,-0.73996 0.88938,-1.1777647 3.47467,-0.771407 5.46847,0.859536 8.96026,3.522668 8.96026,3.522668 0,0 -7.52253,-0.06219 -9.99578,-0.08698 -2.47324,-0.02478 -5.30028,0.542136 -5.30028,0.542136 0,0 1.90505,-2.494005 2.86113,-3.206422 z" />
    <path
       style="fill:#282928;fill-opacity:1;stroke:#000000;stroke-width:0.556386;stroke-linejoin:round;stroke-miterlimit:4;stroke-dasharray:none;stroke-opacity:1"
       d="m 80.141713,13.989573 c 0.1251,0.198026 -9.38129,2.738461 -11.38674,2.289335 -2.00544,-0.449127 -3.85491,-1.919042 -3.85491,-1.919042 2.39892,-0.841076 9.45689,-0.921237 15.24165,-0.370293 z" />
    <circle
       style="fill:#ffffff;fill-opacity:1;stroke:none;stroke-width:0.529167;stroke-miterlimit:4;stroke-dasharray:none;stroke-opacity:1"
       cx="60.34771"
       cy="7.4526463"
       r="1.0115603" />
    <path
       style="fill:#ffffff;stroke-width:0.452754"
       d="m 58.954343,28.670968 c 0,0 2.30202,-6.842392 2.65699,-1.729984 7.14246,0.02956 6.72708,9.575924 3.85202,13.221428 -3.62575,4.59736 -6.63357,6.449611 -13.62066,8.410675 C 44.85559,50.534152 37.65646,48.195346 37.65646,48.195346 47.598709,37.30766 51.835803,35.310897 58.954343,28.670968 Z" />
    <path
       style="fill:#333335;fill-opacity:1;stroke:#000000;stroke-width:0.845048"
       d="m 60.675643,22.614463 c 6.529,8.424236 -2.74119,20.606162 -35.013562,31.380387 C 22.665709,18.581138 54.146643,14.190227 60.675643,22.614463 Z" />
    <ellipse
       style="fill:#ffffff;fill-opacity:1;stroke:none;stroke-width:0.615357;stroke-miterlimit:4;stroke-dasharray:none;stroke-opacity:1"
       cx="18.520521"
       cy="50.532955"
       rx="13.443664"
       ry="9.4775"
       transform="matrix(0.85409566,-0.52011595,0.61561816,0.78804459,0,0)" />
  </g>
</svg>
